solid cantoneira_esquadro_30mm
  facet normal 0 0 -1
    outer loop
      vertex 30.000000 5.000000 0.000000
      vertex 30.000000 0.000000 0.000000
      vertex 0.000000 0.000000 0.000000
    endloop
  endfacet
  facet normal 0 0 1
    outer loop
      vertex 0.000000 0.000000 10.000000
      vertex 30.000000 0.000000 10.000000
      vertex 30.000000 5.000000 10.000000
    endloop
  endfacet
  facet normal 0 0 -1
    outer loop
      vertex 5.000000 5.000000 0.000000
      vertex 30.000000 5.000000 0.000000
      vertex 0.000000 0.000000 0.000000
    endloop
  endfacet
  facet normal 0 0 1
    outer loop
      vertex 0.000000 0.000000 10.000000
      vertex 30.000000 5.000000 10.000000
      vertex 5.000000 5.000000 10.000000
    endloop
  endfacet
  facet normal 0 0 -1
    outer loop
      vertex 0.000000 30.000000 0.000000
      vertex 5.000000 5.000000 0.000000
      vertex 0.000000 0.000000 0.000000
    endloop
  endfacet
  facet normal 0 0 1
    outer loop
      vertex 0.000000 0.000000 10.000000
      vertex 5.000000 5.000000 10.000000
      vertex 0.000000 30.000000 10.000000
    endloop
  endfacet
  facet normal 0 0 -1
    outer loop
      vertex 0.000000 30.000000 0.000000
      vertex 5.000000 30.000000 0.000000
      vertex 5.000000 5.000000 0.000000
    endloop
  endfacet
  facet normal 0 0 1
    outer loop
      vertex 5.000000 5.000000 10.000000
      vertex 5.000000 30.000000 10.000000
      vertex 0.000000 30.000000 10.000000
    endloop
  endfacet
  facet normal 0 -1 0
    outer loop
      vertex 0.000000 0.000000 0.000000
      vertex 30.000000 0.000000 0.000000
      vertex 30.000000 0.000000 10.000000
    endloop
  endfacet
  facet normal 0 -1 0
    outer loop
      vertex 0.000000 0.000000 0.000000
      vertex 30.000000 0.000000 10.000000
      vertex 0.000000 0.000000 10.000000
    endloop
  endfacet
  facet normal 1 0 0
    outer loop
      vertex 30.000000 0.000000 0.000000
      vertex 30.000000 5.000000 0.000000
      vertex 30.000000 5.000000 10.000000
    endloop
  endfacet
  facet normal 1 0 0
    outer loop
      vertex 30.000000 0.000000 0.000000
      vertex 30.000000 5.000000 10.000000
      vertex 30.000000 0.000000 10.000000
    endloop
  endfacet
  facet normal 0 1 0
    outer loop
      vertex 30.000000 5.000000 0.000000
      vertex 5.000000 5.000000 0.000000
      vertex 5.000000 5.000000 10.000000
    endloop
  endfacet
  facet normal 0 1 0
    outer loop
      vertex 30.000000 5.000000 0.000000
      vertex 5.000000 5.000000 10.000000
      vertex 30.000000 5.000000 10.000000
    endloop
  endfacet
  facet normal 1 0 0
    outer loop
      vertex 5.000000 5.000000 0.000000
      vertex 5.000000 30.000000 0.000000
      vertex 5.000000 30.000000 10.000000
    endloop
  endfacet
  facet normal 1 0 0
    outer loop
      vertex 5.000000 5.000000 0.000000
      vertex 5.000000 30.000000 10.000000
      vertex 5.000000 5.000000 10.000000
    endloop
  endfacet
  facet normal 0 1 0
    outer loop
      vertex 5.000000 30.000000 0.000000
      vertex 0.000000 30.000000 0.000000
      vertex 0.000000 30.000000 10.000000
    endloop
  endfacet
  facet normal 0 1 0
    outer loop
      vertex 5.000000 30.000000 0.000000
      vertex 0.000000 30.000000 10.000000
      vertex 5.000000 30.000000 10.000000
    endloop
  endfacet
  facet normal -1 0 0
    outer loop
      vertex 0.000000 30.000000 0.000000
      vertex 0.000000 0.000000 0.000000
      vertex 0.000000 0.000000 10.000000
    endloop
  endfacet
  facet normal -1 0 0
    outer loop
      vertex 0.000000 30.000000 0.000000
      vertex 0.000000 0.000000 10.000000
      vertex 0.000000 30.000000 10.000000
    endloop
  endfacet
endsolid cantoneira_esquadro_30mm
