solid cubo_calibracao_20mm
  facet normal 0 0 -1
    outer loop
      vertex 20.000000 20.000000 0.000000
      vertex 20.000000 0.000000 0.000000
      vertex 0.000000 0.000000 0.000000
    endloop
  endfacet
  facet normal 0 0 1
    outer loop
      vertex 0.000000 0.000000 20.000000
      vertex 20.000000 0.000000 20.000000
      vertex 20.000000 20.000000 20.000000
    endloop
  endfacet
  facet normal 0 0 -1
    outer loop
      vertex 0.000000 20.000000 0.000000
      vertex 20.000000 20.000000 0.000000
      vertex 0.000000 0.000000 0.000000
    endloop
  endfacet
  facet normal 0 0 1
    outer loop
      vertex 0.000000 0.000000 20.000000
      vertex 20.000000 20.000000 20.000000
      vertex 0.000000 20.000000 20.000000
    endloop
  endfacet
  facet normal 0 -1 0
    outer loop
      vertex 0.000000 0.000000 0.000000
      vertex 20.000000 0.000000 0.000000
      vertex 20.000000 0.000000 20.000000
    endloop
  endfacet
  facet normal 0 -1 0
    outer loop
      vertex 0.000000 0.000000 0.000000
      vertex 20.000000 0.000000 20.000000
      vertex 0.000000 0.000000 20.000000
    endloop
  endfacet
  facet normal 1 0 0
    outer loop
      vertex 20.000000 0.000000 0.000000
      vertex 20.000000 20.000000 0.000000
      vertex 20.000000 20.000000 20.000000
    endloop
  endfacet
  facet normal 1 0 0
    outer loop
      vertex 20.000000 0.000000 0.000000
      vertex 20.000000 20.000000 20.000000
      vertex 20.000000 0.000000 20.000000
    endloop
  endfacet
  facet normal 0 1 0
    outer loop
      vertex 20.000000 20.000000 0.000000
      vertex 0.000000 20.000000 0.000000
      vertex 0.000000 20.000000 20.000000
    endloop
  endfacet
  facet normal 0 1 0
    outer loop
      vertex 20.000000 20.000000 0.000000
      vertex 0.000000 20.000000 20.000000
      vertex 20.000000 20.000000 20.000000
    endloop
  endfacet
  facet normal -1 0 0
    outer loop
      vertex 0.000000 20.000000 0.000000
      vertex 0.000000 0.000000 0.000000
      vertex 0.000000 0.000000 20.000000
    endloop
  endfacet
  facet normal -1 0 0
    outer loop
      vertex 0.000000 20.000000 0.000000
      vertex 0.000000 0.000000 20.000000
      vertex 0.000000 20.000000 20.000000
    endloop
  endfacet
endsolid cubo_calibracao_20mm
