M48
; DRILL file {MakePCB} PTH
; FORMAT={-:-/ absolute / metric / decimal}
;TF.FileFunction,Plated,1,2,PTH
FMAT,2
METRIC
T1C0.800
T2C1.300
%
G90
G05
T1
X21.590Y15.240
X24.130Y15.240
X26.670Y15.240
X29.210Y15.240
X29.210Y22.860
X26.670Y22.860
X24.130Y22.860
X21.590Y22.860
X7.620Y31.750
X17.780Y31.750
X7.620Y24.130
X17.780Y24.130
X33.020Y13.970
X43.180Y13.970
X11.700Y8.890
X13.700Y8.890
X36.830Y8.890
X39.370Y8.890
X41.910Y22.860
X44.450Y22.860
T2
X7.620Y13.970
X7.620Y19.050
T0
M30
