G04 MakePCB*
%TF.GenerationSoftware,Maurinsoft,MakePCB,0.1*%
%TF.FileFunction,Copper,L2,Bot*%
%FSLAX46Y46*%
%MOMM*%
%LPD*%
%ADD10R,1.5X2.2*%
%ADD11O,1.5X2.2*%
%ADD12C,1.8*%
%ADD13R,1.4X1.4*%
%ADD14C,1.4*%
%ADD15R,1.8X1.8*%
%ADD16R,2.6X2.6*%
%ADD17C,2.6*%
%ADD18C,0.8*%
G01*
%LPD*%
D10*
X21590000Y15240000D03*
D11*
X24130000Y15240000D03*
X26670000Y15240000D03*
X29210000Y15240000D03*
X29210000Y22860000D03*
X26670000Y22860000D03*
X24130000Y22860000D03*
X21590000Y22860000D03*
D12*
X7620000Y31750000D03*
X17780000Y31750000D03*
X7620000Y24130000D03*
X17780000Y24130000D03*
X33020000Y13970000D03*
X43180000Y13970000D03*
D13*
X11700000Y8890000D03*
D14*
X13700000Y8890000D03*
D12*
X36830000Y8890000D03*
X39370000Y8890000D03*
D15*
X41910000Y22860000D03*
D12*
X44450000Y22860000D03*
D16*
X7620000Y13970000D03*
D17*
X7620000Y19050000D03*
D18*
X29210000Y15240000D02*
X29210000Y15875000D01*
X28575000Y16510000D01*
X28575000Y17145000D01*
X25400000Y20320000D01*
X22860000Y20320000D01*
X21590000Y21590000D01*
X21590000Y22860000D01*
X17780000Y31750000D02*
X10160000Y24130000D01*
X7620000Y24130000D01*
X43180000Y13970000D02*
X43815000Y14605000D01*
X43815000Y22225000D01*
X44450000Y22860000D01*
X21590000Y22860000D02*
X21590000Y23495000D01*
X19685000Y25400000D01*
X19685000Y33655000D01*
X9525000Y33655000D01*
X7620000Y31750000D01*
X24130000Y15240000D02*
X24130000Y14605000D01*
X23495000Y13970000D01*
X23495000Y13335000D01*
X20955000Y10795000D01*
X12700000Y10795000D01*
X11430000Y9525000D01*
X11700000Y8890000D01*
X13700000Y8890000D02*
X13970000Y8255000D01*
X13335000Y7620000D01*
X13335000Y6985000D01*
X10160000Y6985000D01*
X9525000Y7620000D01*
X9525000Y10795000D01*
X10160000Y11430000D01*
X10160000Y16510000D01*
X7620000Y19050000D01*
X26670000Y15240000D02*
X26670000Y14605000D01*
X27305000Y13970000D01*
X27305000Y13335000D01*
X27940000Y13335000D01*
X28575000Y12700000D01*
X31115000Y12700000D01*
X32385000Y13970000D01*
X33020000Y13970000D01*
X21590000Y15240000D02*
X14605000Y15240000D01*
X9525000Y10160000D01*
X9525000Y7620000D01*
X10160000Y6985000D01*
X38735000Y6985000D01*
X38735000Y8255000D01*
X39370000Y8890000D01*
X39370000Y8890000D02*
X40005000Y9525000D01*
X40005000Y20320000D01*
X41910000Y22225000D01*
X41910000Y22860000D01*
X24130000Y22860000D02*
X24130000Y31750000D01*
X19050000Y36830000D01*
X1905000Y36830000D01*
X1270000Y36195000D01*
X1270000Y31115000D01*
X7620000Y24765000D01*
X7620000Y24130000D01*
X26670000Y22860000D02*
X26670000Y22225000D01*
X27305000Y21590000D01*
X27305000Y20955000D01*
X27940000Y20955000D01*
X33020000Y15875000D01*
X34925000Y15875000D01*
X34925000Y12065000D01*
X33020000Y12065000D01*
X31750000Y10795000D01*
X27305000Y10795000D01*
X23495000Y14605000D01*
X23495000Y17145000D01*
X18415000Y22225000D01*
X18415000Y23495000D01*
X17780000Y24130000D01*
X29210000Y22860000D02*
X29845000Y22860000D01*
X34925000Y17780000D01*
X35560000Y17780000D01*
X36830000Y16510000D01*
X36830000Y8890000D01*
X19685000Y26035000D02*
X14605000Y26035000D01*
X10160000Y21590000D01*
X6350000Y21590000D01*
X5080000Y20320000D01*
X5080000Y16510000D01*
X7620000Y13970000D01*
M02*
